<?xml version="1.0" encoding="UTF-8"?>
<svg version="1.1" xmlns="http://www.w3.org/2000/svg" width="434" height="444">
<path d="M0 0 C143.22 0 286.44 0 434 0 C434 146.52 434 293.04 434 444 C290.78 444 147.56 444 0 444 C0 297.48 0 150.96 0 0 Z " fill="#FEFEFE" transform="translate(0,0)"/>
<path d="M0 0 C14.96489218 7.48244609 29.44519753 16.11463213 43.8046875 24.69775391 C46.30854231 26.18302543 48.82591325 27.64403261 51.34375 29.10546875 C53.16685515 30.1741577 54.98977464 31.24316342 56.8125 32.3125 C58.0950769 33.05040771 58.0950769 33.05040771 59.40356445 33.80322266 C60.2049585 34.27679199 61.00635254 34.75036133 61.83203125 35.23828125 C62.54077393 35.65118408 63.2495166 36.06408691 63.97973633 36.48950195 C67.3582757 39.01554704 69.72540235 41.51456508 70.50615788 45.73805904 C70.5089648 46.73594228 70.51177172 47.73382551 70.5146637 48.76194763 C70.52738815 49.9128891 70.54011261 51.06383057 70.55322266 52.24964905 C70.54669678 53.50329758 70.5401709 54.75694611 70.53344727 56.04858398 C70.54050873 57.38933256 70.54925472 58.73007317 70.55955505 60.07080078 C70.58203454 63.7052201 70.57911284 67.33920364 70.57023358 70.97366595 C70.56511888 74.01045239 70.57242019 77.04715728 70.57970566 80.08393532 C70.59670026 87.24947031 70.59314359 94.41479232 70.57641602 101.58032227 C70.55949554 108.96671386 70.57532868 116.35251444 70.6076389 123.73884147 C70.63435068 130.08637401 70.64160655 136.43372276 70.63312382 142.78130585 C70.62819907 146.56987218 70.63038516 150.35808296 70.65091133 154.14660454 C70.66929382 157.7099754 70.66327995 161.27249756 70.63871193 164.83582306 C70.63133281 166.76216436 70.64853993 168.688551 70.66653442 170.61482239 C70.56293619 180.06068915 70.56293619 180.06068915 67.63088989 183.70413208 C64.95362453 186.04046994 62.40870034 187.83764192 59.30078125 189.55859375 C58.18751465 190.18386963 57.07424805 190.80914551 55.92724609 191.45336914 C54.72236383 192.11480639 53.51744757 192.77618171 52.3125 193.4375 C51.05474791 194.13984719 49.79776073 194.84356576 48.54150391 195.54858398 C45.9583406 196.99744288 43.37245571 198.44125474 40.78466797 199.88183594 C35.11269989 203.0471246 29.49498119 206.30608643 23.875 209.5625 C21.72408048 210.80489899 19.57303875 212.04708643 17.421875 213.2890625 C15.28120611 214.52596571 13.14058106 215.76294479 11 217 C-3.95392574 225.64196743 -18.92167773 234.2583362 -33.92724609 242.81030273 C-35.0405127 243.44524658 -36.1537793 244.08019043 -37.30078125 244.734375 C-38.28216064 245.29350586 -39.26354004 245.85263672 -40.2746582 246.42871094 C-42.06767514 247.46247041 -43.83554216 248.54135393 -45.57250977 249.66674805 C-49.72996393 251.95014915 -53.39241835 251.83593102 -58 251 C-62.37112492 249.20866189 -66.33550499 246.8745303 -70.375 244.4375 C-71.42171875 243.82841797 -72.4684375 243.21933594 -73.546875 242.59179688 C-75.64700126 241.36672322 -77.74054772 240.13029585 -79.82714844 238.88232422 C-82.02463995 237.57864158 -84.23748273 236.30062154 -86.46191406 235.04345703 C-87.55987305 234.42196777 -88.65783203 233.80047852 -89.7890625 233.16015625 C-90.7888916 232.60078369 -91.7887207 232.04141113 -92.81884766 231.46508789 C-93.53862793 230.98160889 -94.2584082 230.49812988 -95 230 C-95 229.34 -95 228.68 -95 228 C-95.6703125 227.92394531 -96.340625 227.84789062 -97.03125 227.76953125 C-100.94536763 226.75495076 -104.0875999 224.78212603 -107.5 222.6875 C-109.03564945 221.76427821 -110.57214494 220.84246257 -112.109375 219.921875 C-112.91310547 219.43912109 -113.71683594 218.95636719 -114.54492188 218.45898438 C-118.58046583 216.06077329 -122.66651964 213.75280216 -126.75 211.4375 C-135.02779566 206.72629752 -143.26730018 201.95140393 -151.4876709 197.14089966 C-152.77596297 196.38708386 -154.06461227 195.63387822 -155.3536377 194.88131714 C-157.17310413 193.81865795 -158.99106231 192.7534646 -160.80859375 191.6875 C-161.85845459 191.07261719 -162.90831543 190.45773437 -163.98999023 189.82421875 C-165.47994507 188.92123047 -165.47994507 188.92123047 -167 188 C-168.58373413 187.08154297 -168.58373413 187.08154297 -170.19946289 186.14453125 C-173.48676271 183.62725799 -174.62060324 181.88988119 -176 178 C-176.34057617 174.38134766 -176.34057617 174.38134766 -176.29296875 170.4140625 C-176.28872391 169.71227875 -176.28447906 169.010495 -176.28010559 168.28744507 C-176.26343599 166.0662244 -176.22580872 163.84594212 -176.1875 161.625 C-176.17243788 160.11069027 -176.15875216 158.59636619 -176.14648438 157.08203125 C-176.11357183 153.38772068 -176.06187259 149.69395207 -176 146 C-176.61029053 145.69980957 -177.22058105 145.39961914 -177.84936523 145.09033203 C-185.55385819 141.18429666 -192.58887697 135.94859927 -199.4921875 130.796875 C-201.99333858 128.93962731 -201.99333858 128.93962731 -204.8203125 127.390625 C-205.53960937 126.93171875 -206.25890625 126.4728125 -207 126 C-207 125.34 -207 124.68 -207 124 C-191.12772773 123.95332374 -175.25547392 123.91803267 -159.3831501 123.89637566 C-152.01371087 123.88605362 -144.64431424 123.87197565 -137.27490234 123.84912109 C-130.85333379 123.82921552 -124.43179607 123.81629031 -118.01019752 123.81182301 C-114.6085471 123.80921081 -111.20698491 123.80305191 -107.8053627 123.78853989 C-104.01227749 123.77411021 -100.21937759 123.77201848 -96.42626953 123.77294922 C-94.72587021 123.76216339 -94.72587021 123.76216339 -92.99111938 123.75115967 C-91.96184326 123.753909 -90.93256714 123.75665833 -89.87210083 123.75949097 C-88.97427446 123.75764738 -88.0764481 123.75580379 -87.15141487 123.75390434 C-85 124 -85 124 -83 126 C-82.8125 129.0625 -82.8125 129.0625 -83 132 C-84.52791083 133.52791083 -85.92989408 133.16183457 -88.06079102 133.20532227 C-88.92160782 133.22526749 -89.78242462 133.24521271 -90.66932678 133.26576233 C-91.60473801 133.28247482 -92.54014923 133.29918732 -93.50390625 133.31640625 C-94.45692123 133.33718735 -95.40993622 133.35796844 -96.39183044 133.37937927 C-99.4486441 133.44498177 -102.50554656 133.50380918 -105.5625 133.5625 C-107.62956663 133.60567506 -109.69662414 133.64928901 -111.76367188 133.69335938 C-116.84235595 133.80067401 -121.9211297 133.90191091 -127 134 C-127.79953138 137.28696233 -128.09658936 138.71023192 -127 142 C-120.4 142 -113.8 142 -107 142 C-106.77213542 145.09244792 -106.54427083 148.18489583 -106.31640625 151.27734375 C-106.29581916 153.91109903 -106.29581916 153.91109903 -105 155 C-103.63438234 155.10741771 -102.26332757 155.14678988 -100.89353943 155.15821838 C-100.01052627 155.16799241 -99.1275131 155.17776644 -98.21774197 155.18783665 C-97.23766202 155.1936069 -96.25758207 155.19937716 -95.24780273 155.20532227 C-94.2069027 155.21535499 -93.16600267 155.22538771 -92.09356022 155.23572445 C-88.70692776 155.26723577 -85.32028364 155.29193247 -81.93359375 155.31640625 C-79.84964607 155.33479805 -77.76570225 155.35363408 -75.6817627 155.3729248 C-67.93372101 155.44151165 -60.18560493 155.50147513 -52.4375 155.5625 C-35.133125 155.706875 -17.82875 155.85125 0 156 C0 104.52 0 53.04 0 0 Z " fill="#27539E" transform="translate(282,111)"/>
<path d="M0 0 C2.01367188 1.10913086 2.01367188 1.10913086 4.03125 2.58984375 C9.60418679 6.48853735 15.48486056 9.72121604 21.4375 13 C39.37260509 22.91463866 39.37260509 22.91463866 44 26 C44 26.33 44 26.66 44 27 C42.96613159 26.96688721 42.96613159 26.96688721 41.91137695 26.93310547 C24.53815735 26.17854508 24.53815735 26.17854508 9.87329102 34.13989258 C8.57284871 35.41714923 7.28585578 36.70805973 6 38 C4.60447052 38.88828071 3.19103711 39.75012251 1.75 40.5625 C-1.31071896 43.27540998 -1.47436818 43.93903387 -1.9375 47.8125 C-1.98984122 49.20750721 -2.02128711 50.60417351 -2 52 C-1.24976563 51.43152344 -0.49953125 50.86304688 0.2734375 50.27734375 C6.76043048 45.38350396 13.3042275 40.60704701 20 36 C20.33 36.99 20.66 37.98 21 39 C19.58549606 40.1485021 18.16820465 41.29357078 16.75 42.4375 C15.84894531 43.16710937 14.94789063 43.89671875 14.01953125 44.6484375 C11.93388642 46.27270423 9.87466137 47.80050106 7.69921875 49.2890625 C6.62285156 50.03929687 5.54648438 50.78953125 4.4375 51.5625 C3.42558594 52.24441406 2.41367188 52.92632812 1.37109375 53.62890625 C-1.65712355 56.65712355 -1.79152088 58.80499329 -2 63 C-1.01 63 -0.02 63 1 63 C1 62.34 1 61.68 1 61 C3.21814024 59.2711554 5.43606469 57.65333053 7.75 56.0625 C9.01585609 55.17871632 10.28148687 54.29460983 11.546875 53.41015625 C12.14693359 52.99523926 12.74699219 52.58032227 13.36523438 52.15283203 C14.71417212 51.201565 16.02673545 50.19893962 17.328125 49.18359375 C19 48 19 48 21 48 C20.6378668 50.71210706 20.19318884 51.81766012 18.17407227 53.72338867 C17.39604248 54.2826001 16.6180127 54.84181152 15.81640625 55.41796875 C14.97142578 56.03220703 14.12644531 56.64644531 13.25585938 57.27929688 C12.36705078 57.90900391 11.47824219 58.53871094 10.5625 59.1875 C9.23508789 60.14946289 9.23508789 60.14946289 7.88085938 61.13085938 C1.42338102 65.78830949 1.42338102 65.78830949 -1 67 C-1.46651207 69.12576782 -1.46651207 69.12576782 -1.625 71.5625 C-1.73714844 72.80193359 -1.73714844 72.80193359 -1.8515625 74.06640625 C-1.90054688 74.70449219 -1.94953125 75.34257812 -2 76 C-1.01 75.26394531 -0.02 74.52789062 1 73.76953125 C14.01414779 64.13448396 14.01414779 64.13448396 21 60 C21 61.32 21 62.64 21 64 C18.77791558 65.85371748 16.65611333 67.42456865 14.25 69 C10.15106957 71.7492826 6.36020978 74.33431661 3 78 C6.62920654 80.94849793 6.62920654 80.94849793 11 82.0625 C14.01785313 80.45926552 16.39502085 78.20856928 19 76 C19.66 76 20.32 76 21 76 C20.61402985 78.79828356 20.19863427 79.8205884 18.0625 81.75 C16 83 16 83 14 83 C16.91765752 86.15914262 19.83878955 88.25997131 23.5703125 90.3828125 C24.63121094 90.99253906 25.69210937 91.60226563 26.78515625 92.23046875 C27.88730469 92.85566406 28.98945313 93.48085937 30.125 94.125 C32.31668078 95.37484351 34.50686305 96.62731958 36.6953125 97.8828125 C37.66484863 98.43340332 38.63438477 98.98399414 39.63330078 99.55126953 C42 101 42 101 44 103 C44.26991906 105.68839385 44.08737357 108.29141936 44 111 C39.60250061 109.42227121 35.7312376 107.15509202 31.75 104.75 C22.97123495 99.50756779 14.0561621 94.5210497 5.11621094 89.55957031 C3.55821777 88.69283691 3.55821777 88.69283691 1.96875 87.80859375 C0.56786133 87.03213501 0.56786133 87.03213501 -0.86132812 86.23999023 C-3 85 -3 85 -4 84 C-10.2874984 82.97878211 -14.59792437 86.23827207 -19.75 89.375 C-20.61238281 89.88289063 -21.47476563 90.39078125 -22.36328125 90.9140625 C-26.9562156 93.59496102 -26.9562156 93.59496102 -31 97 C-32.62629742 97.67762392 -34.25313449 98.35398471 -35.8828125 99.0234375 C-39.22304742 100.56413627 -42.29453519 102.51854305 -45.42578125 104.44140625 C-48.6602283 106.39974369 -51.9629251 108.21536706 -55.28515625 110.01953125 C-56.97182094 110.88419402 -56.97182094 110.88419402 -58 112 C-58.23527773 114.34987262 -58.41386417 116.70556039 -58.5625 119.0625 C-58.68818359 120.99802734 -58.68818359 120.99802734 -58.81640625 122.97265625 C-58.87699219 123.97167969 -58.93757813 124.97070312 -59 126 C-60.20398438 126.06058594 -61.40796875 126.12117188 -62.6484375 126.18359375 C-64.22397077 126.26799732 -65.79949096 126.35264541 -67.375 126.4375 C-68.1690625 126.47681641 -68.963125 126.51613281 -69.78125 126.55664062 C-74.02601221 126.68893404 -74.02601221 126.68893404 -78 128 C-77.505 130.475 -77.505 130.475 -77 133 C-76.06705612 133.01213028 -76.06705612 133.01213028 -75.11526489 133.02450562 C-68.65914984 133.11036507 -62.20334846 133.20985976 -55.74755859 133.31738281 C-53.33615372 133.35573647 -50.92469038 133.3905779 -48.51318359 133.421875 C-45.05284687 133.46738703 -41.59291492 133.52540404 -38.1328125 133.5859375 C-36.50776291 133.60326431 -36.50776291 133.60326431 -34.84988403 133.62094116 C-33.8489975 133.64081085 -32.84811096 133.66068054 -31.81689453 133.68115234 C-30.93309113 133.69447601 -30.04928772 133.70779968 -29.13870239 133.7215271 C-27 134 -27 134 -25 136 C-24.66666667 141.33333333 -24.66666667 141.33333333 -26 144 C-59.66 144 -93.32 144 -128 144 C-128.185625 126.3965625 -128.185625 126.3965625 -128.375 108.4375 C-128.42962402 104.74232178 -128.48424805 101.04714355 -128.54052734 97.23999023 C-128.56762695 92.70129395 -128.56762695 92.70129395 -128.57266235 90.57142639 C-128.58183068 89.09495675 -128.60284031 87.61852996 -128.63345337 86.14234924 C-128.90947247 72.12248587 -128.90947247 72.12248587 -125.14575195 67.58984375 C-122.33958743 64.98987237 -119.26319497 63.21570034 -115.8125 61.5625 C-108.14207408 57.73078678 -100.79281114 53.39699559 -93.4375 49 C-91.06550827 47.58525919 -88.69293482 46.17149546 -86.3203125 44.7578125 C-85.21333008 44.09813477 -84.10634766 43.43845703 -82.96582031 42.75878906 C-78.57425576 40.15450597 -74.14279014 37.62777397 -69.69921875 35.11328125 C-64.47856134 32.14703283 -59.30731668 29.09501167 -54.125 26.0625 C-46.63953031 21.68373729 -39.13098799 17.35834166 -31.5546875 13.13891602 C-25.59577232 9.80592342 -19.75166518 6.29005301 -13.9140625 2.75 C-9.04432223 -0.17445528 -5.65491775 -0.85115147 0 0 Z " fill="#EB6043" transform="translate(234,82)"/>
<path d="M0 0 C9.9 0 19.8 0 30 0 C30 9.9 30 19.8 30 30 C20.1 30 10.2 30 0 30 C0 20.1 0 10.2 0 0 Z " fill="#EB6348" transform="translate(214,207)"/>
<path d="M0 0 C0 3 0 3 -2 6 C-2.33042688 9.13516928 -2.33042688 9.13516928 -2.31884766 12.76635742 C-2.32900091 13.46057202 -2.33915417 14.15478662 -2.3496151 14.87003803 C-2.38022878 17.11517638 -2.39740078 19.36018803 -2.4140625 21.60546875 C-2.43099796 22.99240206 -2.4488147 24.3793249 -2.4675293 25.76623535 C-2.53070476 30.90653668 -2.57681636 36.04703628 -2.625 41.1875 C-2.74875 52.675625 -2.8725 64.16375 -3 76 C30 76 63 76 97 76 C97 76.66 97 77.32 97 78 C63.34 78 29.68 78 -5 78 C-5.103125 66.24375 -5.20625 54.4875 -5.3125 42.375 C-5.35802002 38.67071777 -5.40354004 34.96643555 -5.45043945 31.14990234 C-5.47302246 26.60668945 -5.47302246 26.60668945 -5.47721863 24.47598267 C-5.48486828 22.99616976 -5.50239568 21.51638695 -5.52787781 20.03677368 C-5.56466001 17.78747924 -5.56952469 15.54007894 -5.56762695 13.29052734 C-5.57873001 12.02477875 -5.58983307 10.75903015 -5.60127258 9.45492554 C-4.81308619 4.9259891 -3.16066171 3.26302633 0 0 Z " fill="#E37F6C" transform="translate(111,148)"/>
<path d="M0 0 C15.01526718 8.01526718 15.01526718 8.01526718 18 11 C18.14115161 13.67058851 18.04247107 16.32432238 18 19 C13.08485984 17.27332402 8.77159534 14.64746967 4.3125 12 C3.54099609 11.54882812 2.76949219 11.09765625 1.97460938 10.6328125 C-3.74257063 7.25742937 -3.74257063 7.25742937 -6 5 C-5.195625 4.731875 -4.39125 4.46375 -3.5625 4.1875 C-2.716875 3.795625 -1.87125 3.40375 -1 3 C-0.67 2.01 -0.34 1.02 0 0 Z " fill="#E9694E" transform="translate(260,174)"/>
<path d="M0 0 C1.1653125 0.00515625 2.330625 0.0103125 3.53125 0.015625 C4.6965625 0.01046875 5.861875 0.0053125 7.0625 0 C10.03125 0.265625 10.03125 0.265625 12.03125 2.265625 C12.28125 4.765625 12.28125 4.765625 12.03125 7.265625 C10.03125 9.265625 10.03125 9.265625 7.31640625 9.53125 C6.25292969 9.52609375 5.18945312 9.5209375 4.09375 9.515625 C2.50240234 9.52335938 2.50240234 9.52335938 0.87890625 9.53125 C-1.96875 9.265625 -1.96875 9.265625 -4.96875 7.265625 C-5.28125 4.765625 -5.28125 4.765625 -4.96875 2.265625 C-2.96875 0.265625 -2.96875 0.265625 0 0 Z " fill="#F8FCFC" transform="translate(129.96875,206.734375)"/>
<path d="M0 0 C1.093125 0.00257813 2.18625 0.00515625 3.3125 0.0078125 C4.405625 0.00523437 5.49875 0.00265625 6.625 0 C9.3125 0.1328125 9.3125 0.1328125 10.3125 1.1328125 C10.5 4.0703125 10.5 4.0703125 10.3125 7.1328125 C7.80237037 9.64294213 6.84444763 9.43002859 3.375 9.4453125 C2.06208984 9.47044922 2.06208984 9.47044922 0.72265625 9.49609375 C-1.6875 9.1328125 -1.6875 9.1328125 -3.51953125 7.77734375 C-4.6875 6.1328125 -4.6875 6.1328125 -4.4375 3.5078125 C-3.38255751 0.16716127 -3.38255751 0.16716127 0 0 Z " fill="#F2F5F7" transform="translate(127.6875,243.8671875)"/>
<path d="M0 0 C0.33 0.99 0.66 1.98 1 3 C-6.20412299 8.84936535 -13.54990225 14.47003054 -21 20 C-23.20914 16.68629 -23.22481553 15.6553979 -23.125 11.8125 C-23.10695312 10.91144531 -23.08890625 10.01039063 -23.0703125 9.08203125 C-23.04710937 8.39496094 -23.02390625 7.70789063 -23 7 C-22.67 7 -22.34 7 -22 7 C-22 9.97 -22 12.94 -22 16 C-21.24976563 15.43152344 -20.49953125 14.86304688 -19.7265625 14.27734375 C-13.23956952 9.38350396 -6.6957725 4.60704701 0 0 Z " fill="#E5765D" transform="translate(254,118)"/>
<path d="M0 0 C0 3 0 3 -1.47297668 5.25614929 C-3.3762392 8.67605006 -3.3967065 10.99969057 -3.43237305 14.90161133 C-3.4425647 15.57533783 -3.45275635 16.24906433 -3.46325684 16.94320679 C-3.49330035 19.15623381 -3.50263905 21.36882739 -3.51171875 23.58203125 C-3.52857194 25.12189665 -3.54672305 26.66174835 -3.56611633 28.20158386 C-3.61355335 32.2440462 -3.64340322 36.28645296 -3.66955566 40.32910156 C-3.69939313 44.45844495 -3.74591248 48.587597 -3.79101562 52.71679688 C-3.87697701 60.81110377 -3.94435391 68.9054282 -4 77 C-4.33 77 -4.66 77 -5 77 C-5.11599585 67.84648097 -5.20476642 58.69321604 -5.25906086 49.53912163 C-5.28512343 45.28818626 -5.32045929 41.03775477 -5.37719727 36.78710938 C-5.43163796 32.6827514 -5.46144566 28.57887719 -5.47438622 24.47418594 C-5.48360463 22.9104768 -5.50160663 21.34679331 -5.52865028 19.78329086 C-5.56510422 17.58786155 -5.56993902 15.39441512 -5.56762695 13.19873047 C-5.57873001 11.95074677 -5.58983307 10.70276306 -5.60127258 9.41696167 C-4.80985937 4.91945304 -3.13759411 3.24651583 0 0 Z " fill="#DF857E" transform="translate(111,148)"/>
<path d="M0 0 C-0.36278158 2.71362108 -0.81457372 3.82337521 -2.82592773 5.73925781 C-3.60395752 6.30483398 -4.3819873 6.87041016 -5.18359375 7.453125 C-6.02857422 8.071875 -6.87355469 8.690625 -7.74414062 9.328125 C-8.63294922 9.96234375 -9.52175781 10.5965625 -10.4375 11.25 C-11.32244141 11.8996875 -12.20738281 12.549375 -13.11914062 13.21875 C-19.71344866 18 -19.71344866 18 -22 18 C-22 17.34 -22 16.68 -22 16 C-22.66 16 -23.32 16 -24 16 C-24 13.36 -24 10.72 -24 8 C-23.67 8 -23.34 8 -23 8 C-23 10.31 -23 12.62 -23 15 C-22.01 15 -21.02 15 -20 15 C-20 14.34 -20 13.68 -20 13 C-17.78185976 11.2711554 -15.56393531 9.65333053 -13.25 8.0625 C-11.98414391 7.17871632 -10.71851313 6.29460983 -9.453125 5.41015625 C-8.85306641 4.99523926 -8.25300781 4.58032227 -7.63476562 4.15283203 C-6.28582788 3.201565 -4.97326455 2.19893962 -3.671875 1.18359375 C-2 0 -2 0 0 0 Z " fill="#E6765C" transform="translate(255,130)"/>
<path d="M0 0 C0.33 1.32 0.66 2.64 1 4 C-1.22747735 5.60655674 -3.45689442 7.21029679 -5.6875 8.8125 C-6.31333984 9.26431641 -6.93917969 9.71613281 -7.58398438 10.18164062 C-10.97604693 12.61469073 -14.37739216 14.91509568 -18 17 C-18.66 16.34 -19.32 15.68 -20 15 C-13.52601761 9.69684421 -6.91790499 4.71006297 0 0 Z " fill="#E47459" transform="translate(254,142)"/>
<path d="M0 0 C2 0.6875 2 0.6875 4 2.6875 C4.26991906 5.37589385 4.08737357 7.97891936 4 10.6875 C1.0280615 9.56298273 -1.33440687 8.46456209 -4 6.6875 C-4.1875 3.5625 -4.1875 3.5625 -4 0.6875 C-2 -0.3125 -2 -0.3125 0 0 Z " fill="#E87259" transform="translate(274,182.3125)"/>
<path d="M0 0 C1.1653125 0.00515625 2.330625 0.0103125 3.53125 0.015625 C4.6965625 0.01046875 5.861875 0.0053125 7.0625 0 C10.03125 0.265625 10.03125 0.265625 12.03125 2.265625 C12.15625 4.890625 12.15625 4.890625 12.03125 7.265625 C11.04125 7.760625 11.04125 7.760625 10.03125 8.265625 C10.03125 6.285625 10.03125 4.305625 10.03125 2.265625 C8.26005197 2.40695999 6.48929713 2.55385708 4.71875 2.703125 C3.23955078 2.82494141 3.23955078 2.82494141 1.73046875 2.94921875 C-1.06250599 3.18375059 -1.06250599 3.18375059 -3.96875 4.265625 C-4.29875 5.255625 -4.62875 6.245625 -4.96875 7.265625 C-5.09375 4.890625 -5.09375 4.890625 -4.96875 2.265625 C-2.96875 0.265625 -2.96875 0.265625 0 0 Z " fill="#F8DCD3" transform="translate(129.96875,206.734375)"/>
<path d="M0 0 C0.66 0.33 1.32 0.66 2 1 C1.67 1.33 1.34 1.66 1 2 C0.76518307 4.18292774 0.58636677 6.37203174 0.4375 8.5625 C0.31181641 10.35880859 0.31181641 10.35880859 0.18359375 12.19140625 C0.12300781 13.11824219 0.06242188 14.04507813 0 15 C-0.99 15.33 -1.98 15.66 -3 16 C-3.0810206 13.89646505 -3.13919907 11.79204048 -3.1875 9.6875 C-3.22230469 8.51574219 -3.25710937 7.34398437 -3.29296875 6.13671875 C-3 3 -3 3 -1.48828125 1.08203125 C-0.99714844 0.72496094 -0.50601563 0.36789063 0 0 Z " fill="#F9F0EC" transform="translate(178,191)"/>
<path d="M0 0 C0.66 0.99 1.32 1.98 2 3 C-0.64 4.98 -3.28 6.96 -6 9 C-6.99 8.34 -7.98 7.68 -9 7 C-6.03 4.69 -3.06 2.38 0 0 Z " fill="#E97D64" transform="translate(243,150)"/>
<path d="M0 0 C2.64 1.32 5.28 2.64 8 4 C8 4.33 8 4.66 8 5 C0.08 5 -7.84 5 -16 5 C-16 4.67 -16 4.34 -16 4 C-10.06 4 -4.12 4 2 4 C2 3.34 2 2.68 2 2 C1.34 2 0.68 2 0 2 C0 1.34 0 0.68 0 0 Z " fill="#E87A61" transform="translate(270,104)"/>
<path d="M0 0 C-0.38597015 2.79828356 -0.80136573 3.8205884 -2.9375 5.75 C-5 7 -5 7 -7 7 C-6.67 7.99 -6.34 8.98 -6 10 C-6.66 10 -7.32 10 -8 10 C-8.33 8.68 -8.66 7.36 -9 6 C-7.8803014 4.99406757 -6.7540588 3.9954151 -5.625 3 C-4.68527344 2.1646875 -4.68527344 2.1646875 -3.7265625 1.3125 C-2 0 -2 0 0 0 Z " fill="#E57761" transform="translate(255,158)"/>
<path d="M0 0 C1.65322266 0.01740234 1.65322266 0.01740234 3.33984375 0.03515625 C4.99693359 0.04869141 4.99693359 0.04869141 6.6875 0.0625 C7.54214844 0.07410156 8.39679688 0.08570313 9.27734375 0.09765625 C9.27734375 0.42765625 9.27734375 0.75765625 9.27734375 1.09765625 C8.59027344 1.15824219 7.90320313 1.21882812 7.1953125 1.28125 C5.84373047 1.40693359 5.84373047 1.40693359 4.46484375 1.53515625 C3.12486328 1.65697266 3.12486328 1.65697266 1.7578125 1.78125 C-0.85009184 2.03255392 -0.85009184 2.03255392 -3.72265625 3.09765625 C-4.05265625 4.08765625 -4.38265625 5.07765625 -4.72265625 6.09765625 C-3.65171431 0.13097971 -3.65171431 0.13097971 0 0 Z " fill="#CFDCEF" transform="translate(127.72265625,243.90234375)"/>
<path d="M0 0 C2.4375 1.3125 2.4375 1.3125 3.25 3.4375 C3.311875 4.05625 3.37375 4.675 3.4375 5.3125 C0.06246331 4.1266763 -2.20972731 3.03676311 -4.5625 0.3125 C-2.5625 -0.6875 -2.5625 -0.6875 0 0 Z " fill="#F7E3DC" transform="translate(255.5625,167.6875)"/>
<path d="M0 0 C0 0.66 0 1.32 0 2 C-0.99 2 -1.98 2 -3 2 C-3 2.66 -3 3.32 -3 4 C-6 6 -6 6 -8.1875 5.625 C-8.785625 5.41875 -9.38375 5.2125 -10 5 C-8.71186658 4.16121545 -7.41936744 3.32913217 -6.125 2.5 C-5.40570313 2.0359375 -4.68640625 1.571875 -3.9453125 1.09375 C-2 0 -2 0 0 0 Z " fill="#E6856F" transform="translate(192,102)"/>
<path d="M0 0 C1.32 0.33 2.64 0.66 4 1 C1.03 3.475 1.03 3.475 -2 6 C-2 3 -2 3 0 0 Z " fill="#E46A57" transform="translate(240,128)"/>
</svg>
